<svg xmlns="http://www.w3.org/2000/svg" width="114.581" height="115.75" viewBox="0 0 114.581 115.75">
  <g id="Icon" transform="translate(-7.71 -6.75)">
    <g id="Group_2828" data-name="Group 2828">
      <g id="Group_2827" data-name="Group 2827">
        <path id="Path_6207" data-name="Path 6207" d="M35.13,44.25l-.01-8.39a5.01,5.01,0,0,1,1.38-3.48L57.81,10.19a4.612,4.612,0,0,1,3.33-1.44h52.79a6.5,6.5,0,0,1,6.36,6.72l-.24,17.68-.04,49.13v27.56a4.817,4.817,0,0,1-4.72,4.91H39.92a4.817,4.817,0,0,1-4.72-4.91l-.03-32.59" fill="none" stroke="#071fd2" stroke-miterlimit="10" stroke-width="4"/>
        <path id="Path_6208" data-name="Path 6208" d="M61.706,8.75V31.058a4.482,4.482,0,0,1-4.237,4.692H35.706" fill="none" stroke="#071fd2" stroke-miterlimit="10" stroke-width="4"/>
      </g>
      <path id="Path_6209" data-name="Path 6209" d="M96.1,106.89H86.21v14.36h-17V106.89h-9.9l18.4-21.92Z" fill="#fff" stroke="#071fd2" stroke-width="2.5"/>
    </g>
    <path id="Path_6210" data-name="Path 6210" d="M73.71,43.5h-62a4,4,0,0,0-4,4v26a4,4,0,0,0,4,4h62a4,4,0,0,0,4-4v-26A4,4,0,0,0,73.71,43.5ZM34.688,66.026a7.172,7.172,0,0,1-1.129,2.027,5.862,5.862,0,0,1-1.967,1.615,5.974,5.974,0,0,1-2.788.621,8.108,8.108,0,0,1-2.2-.279,5.568,5.568,0,0,1-1.8-.868,6.568,6.568,0,0,1-1.482-1.552,9.664,9.664,0,0,1-1.03-1.957,11.825,11.825,0,0,1-.64-2.313,15.174,15.174,0,0,1-.213-2.61,13.9,13.9,0,0,1,.535-4.017,9.038,9.038,0,0,1,1.535-3.034,6.791,6.791,0,0,1,2.341-1.919,6.416,6.416,0,0,1,2.861-.659,6.122,6.122,0,0,1,3.3.9A6.412,6.412,0,0,1,34.235,54.2a5,5,0,0,1,.771,2.5,1.833,1.833,0,0,1-.375,1.141A1.182,1.182,0,0,1,32.836,58a4.888,4.888,0,0,1-.66-1.179,5.536,5.536,0,0,0-1.421-2.065,3.029,3.029,0,0,0-2.013-.684,3.451,3.451,0,0,0-3.033,1.761,9.278,9.278,0,0,0-1.129,5.005,11.114,11.114,0,0,0,.5,3.6,4.485,4.485,0,0,0,1.415,2.147,3.393,3.393,0,0,0,2.144.71,3.306,3.306,0,0,0,2.253-.805A4.93,4.93,0,0,0,32.28,64.13a4.421,4.421,0,0,1,.489-1.2,1.025,1.025,0,0,1,.937-.462,1.2,1.2,0,0,1,.947.469,1.75,1.75,0,0,1,.4,1.165A5.937,5.937,0,0,1,34.688,66.026Zm14.015,1.4a5.094,5.094,0,0,1-2.086,2.1,6.622,6.622,0,0,1-3.257.761,6.3,6.3,0,0,1-3.726-1.039,5.587,5.587,0,0,1-1.69-2,5.243,5.243,0,0,1-.65-2.426,1.814,1.814,0,0,1,.391-1.172,1.218,1.218,0,0,1,.993-.488,1.066,1.066,0,0,1,.827.38,3.144,3.144,0,0,1,.578,1.128,8.049,8.049,0,0,0,.629,1.482,2.767,2.767,0,0,0,.952.982,3,3,0,0,0,1.613.386,3.193,3.193,0,0,0,2.231-.779,2.516,2.516,0,0,0,.858-1.944,2.326,2.326,0,0,0-.463-1.5,2.948,2.948,0,0,0-1.2-.88,17.742,17.742,0,0,0-1.962-.646,12.711,12.711,0,0,1-2.752-1.1,4.742,4.742,0,0,1-1.759-1.711,5.144,5.144,0,0,1-.65-2.692,5.346,5.346,0,0,1,.688-2.724,4.556,4.556,0,0,1,1.987-1.831,6.864,6.864,0,0,1,3.059-.64,6.327,6.327,0,0,1,2.43.425,4.939,4.939,0,0,1,1.7,1.127,4.67,4.67,0,0,1,.989,1.477,4.013,4.013,0,0,1,.312,1.508,2.014,2.014,0,0,1-.39,1.21,1.169,1.169,0,0,1-.974.538,1,1,0,0,1-.806-.323,4.4,4.4,0,0,1-.6-1.058,4.827,4.827,0,0,0-1-1.641,2.549,2.549,0,0,0-1.873-.589,2.83,2.83,0,0,0-1.93.64,1.97,1.97,0,0,0-.733,1.539,1.8,1.8,0,0,0,.249.963,2.26,2.26,0,0,0,.688.7,4.248,4.248,0,0,0,.884.456c.3.109.791.271,1.478.481a20.037,20.037,0,0,1,2.336.811,6.693,6.693,0,0,1,1.779,1.077A4.286,4.286,0,0,1,49,62.024a6.088,6.088,0,0,1,.411,2.376A6.346,6.346,0,0,1,48.7,67.426ZM64.316,53.369c-.042.215-.094.427-.156.634s-.125.42-.188.64L60.279,66.78c-.132.465-.264.9-.4,1.324a6.2,6.2,0,0,1-.458,1.1,2.27,2.27,0,0,1-.692.779,1.784,1.784,0,0,1-1.056.305,1.817,1.817,0,0,1-1.056-.3,2.22,2.22,0,0,1-.7-.786A6.42,6.42,0,0,1,55.46,68.1q-.2-.621-.4-1.317L51.433,54.744c-.063-.219-.127-.435-.192-.646a5.977,5.977,0,0,1-.167-.685,3.519,3.519,0,0,1-.067-.621,1.841,1.841,0,0,1,.427-1.178,1.318,1.318,0,0,1,1.072-.532,1.174,1.174,0,0,1,1.118.589,8.785,8.785,0,0,1,.671,1.882L57.75,66.007l3.465-12.543q.27-.989.4-1.375a1.829,1.829,0,0,1,.447-.7,1.158,1.158,0,0,1,.854-.311,1.233,1.233,0,0,1,.733.241,1.639,1.639,0,0,1,.531.64,1.839,1.839,0,0,1,.192.805A3.069,3.069,0,0,1,64.316,53.369Z" fill="#071fd2"/>
  </g>
</svg>
