<svg id="undraw_project_team_lc5a" xmlns="http://www.w3.org/2000/svg" width="164.592" height="167.526" viewBox="0 0 164.592 167.526">
  <path id="Path_6174" data-name="Path 6174" d="M245.752,202.164a3.272,3.272,0,0,1-.612-2.807,77.519,77.519,0,0,0,0-36,3.273,3.273,0,0,1,.612-2.807,3.218,3.218,0,0,1,2.542-1.232H278.5a3.259,3.259,0,0,1,3.21,2.731,126.882,126.882,0,0,1,0,38.616,3.259,3.259,0,0,1-3.21,2.731H248.294a3.218,3.218,0,0,1-2.542-1.231Z" transform="translate(-145.42 -52.792)" fill="#e6e6e6"/>
  <path id="Path_6175" data-name="Path 6175" d="M219.655,142.67a3.271,3.271,0,0,1-.611-2.806,77.521,77.521,0,0,0,0-36,3.272,3.272,0,0,1,.611-2.806,3.217,3.217,0,0,1,2.542-1.232H252.4a3.26,3.26,0,0,1,3.21,2.731,126.877,126.877,0,0,1,0,38.616,3.259,3.259,0,0,1-3.21,2.732H222.2A3.217,3.217,0,0,1,219.655,142.67Z" transform="translate(-166.05 -99.822)" fill="#e6e6e6"/>
  <path id="Path_6176" data-name="Path 6176" d="M261.506,161.909a126.877,126.877,0,0,1,0-38.616,3.259,3.259,0,0,1,3.21-2.731h30.205a3.217,3.217,0,0,1,2.542,1.232,3.272,3.272,0,0,1,.612,2.806,77.519,77.519,0,0,0,0,36,3.271,3.271,0,0,1-.611,2.806,3.217,3.217,0,0,1-2.542,1.232H264.716a3.259,3.259,0,0,1-3.21-2.732Z" transform="translate(-133.577 -83.428)" fill="#6c63ff"/>
  <path id="Path_6177" data-name="Path 6177" d="M190.883,161.156a126.893,126.893,0,0,1,0-38.616,3.259,3.259,0,0,1,3.21-2.731H224.3a3.217,3.217,0,0,1,2.542,1.232,3.272,3.272,0,0,1,.612,2.806,77.518,77.518,0,0,0,0,36,3.271,3.271,0,0,1-.611,2.806,3.217,3.217,0,0,1-2.542,1.232h-30.2a3.259,3.259,0,0,1-3.211-2.732Z" transform="translate(-189.405 -84.023)" fill="#ff6584"/>
  <path id="Path_6178" data-name="Path 6178" d="M194.72,211.914a3.326,3.326,0,0,1-.622-2.853,78.785,78.785,0,0,0,0-36.594,3.327,3.327,0,0,1,.622-2.853,3.271,3.271,0,0,1,2.584-1.252H228a3.312,3.312,0,0,1,3.263,2.776,128.961,128.961,0,0,1,0,39.251A3.312,3.312,0,0,1,228,213.166H197.3a3.271,3.271,0,0,1-2.584-1.252Z" transform="translate(-185.771 -45.64)" fill="#6c63ff"/>
  <path id="Path_6180" data-name="Path 6180" d="M217.827,180.028H201.655a2.275,2.275,0,0,1-2.273-2.273v-.965a2.275,2.275,0,0,1,2.273-2.273h16.173a2.275,2.275,0,0,1,2.273,2.273v.965a2.275,2.275,0,0,1-2.273,2.273Z" transform="translate(-181.519 -40.775)" fill="#fff"/>
  <path id="Path_6181" data-name="Path 6181" d="M217.827,185.337H201.655a2.275,2.275,0,0,1-2.273-2.273V182.1a2.275,2.275,0,0,1,2.273-2.273h16.173A2.275,2.275,0,0,1,220.1,182.1v.965a2.275,2.275,0,0,1-2.273,2.273Z" transform="translate(-181.519 -36.578)" fill="#fff"/>
  <path id="Path_6182" data-name="Path 6182" d="M211.7,132.647H195.852a2.275,2.275,0,0,1-2.273-2.273v-.888a2.275,2.275,0,0,1,2.273-2.273H211.7a2.275,2.275,0,0,1,2.273,2.273v.888a2.275,2.275,0,0,1-2.273,2.273Z" transform="translate(-186.105 -78.169)" fill="#fff"/>
  <path id="Path_6183" data-name="Path 6183" d="M268.261,169.934h-15.85a2.275,2.275,0,0,1-2.273-2.273v-.888a2.275,2.275,0,0,1,2.273-2.273h15.85a2.275,2.275,0,0,1,2.273,2.273v.888a2.275,2.275,0,0,1-2.273,2.273Z" transform="translate(-141.395 -48.693)" fill="#fff"/>
  <path id="Path_6184" data-name="Path 6184" d="M268.261,176.2h-15.85a2.275,2.275,0,0,1-2.273-2.273v-.888a2.275,2.275,0,0,1,2.273-2.273h15.85a2.275,2.275,0,0,1,2.273,2.273v.888a2.275,2.275,0,0,1-2.273,2.273Z" transform="translate(-141.395 -43.739)" fill="#fff"/>
  <path id="Path_6185" data-name="Path 6185" d="M268.261,182.469h-15.85a2.275,2.275,0,0,1-2.273-2.273v-.889a2.275,2.275,0,0,1,2.273-2.273h15.85a2.275,2.275,0,0,1,2.273,2.273v.888a2.275,2.275,0,0,1-2.273,2.273Z" transform="translate(-141.395 -38.784)" fill="#fff"/>
  <path id="Path_6186" data-name="Path 6186" d="M211.7,137.87H195.852a2.275,2.275,0,0,1-2.273-2.273v-.888a2.275,2.275,0,0,1,2.273-2.273H211.7a2.275,2.275,0,0,1,2.273,2.273v.888a2.275,2.275,0,0,1-2.273,2.273Z" transform="translate(-186.105 -74.04)" fill="#fff"/>
  <path id="Path_6187" data-name="Path 6187" d="M242.24,111.484H226.39a2.275,2.275,0,0,1-2.273-2.273v-.888a2.275,2.275,0,0,1,2.273-2.273h15.85a2.275,2.275,0,0,1,2.273,2.273v.888a2.275,2.275,0,0,1-2.273,2.273Z" transform="translate(-161.965 -94.898)" fill="#fff"/>
  <path id="Path_6188" data-name="Path 6188" d="M282.635,133.923H266.784a2.275,2.275,0,0,1-2.273-2.273v-.888a2.275,2.275,0,0,1,2.273-2.273h15.851a2.275,2.275,0,0,1,2.273,2.273v.888a2.275,2.275,0,0,1-2.272,2.272Z" transform="translate(-130.033 -77.161)" fill="#fff"/>
</svg>
