<svg xmlns="http://www.w3.org/2000/svg" width="46.5" height="46.5" viewBox="0 0 46.5 46.5">
  <path id="iconfinder_Power_6922043" d="M52.625,10H13.875A3.887,3.887,0,0,0,10,13.875v38.75A3.887,3.887,0,0,0,13.875,56.5h38.75A3.887,3.887,0,0,0,56.5,52.625V13.875A3.887,3.887,0,0,0,52.625,10ZM31.313,15.813h3.875v15.5H31.313ZM33.25,50.688a17.436,17.436,0,0,1-9.688-31.934l2.154,3.22a13.562,13.562,0,1,0,15.068,0l2.154-3.22A17.436,17.436,0,0,1,33.25,50.688Z" transform="translate(-10 -10)" fill="#0e53b1"/>
</svg>
