<svg xmlns="http://www.w3.org/2000/svg" width="412.767" height="461.795" viewBox="0 0 412.767 461.795">
  <g id="undraw_data_input_fxv2" transform="translate(0 -76.782)">
    <path id="Path_508" data-name="Path 508" d="M557.929,428l130.166-.232a.877.877,0,1,0,0-1.755l-130.166.232a.877.877,0,1,0,0,1.755Z" transform="translate(-353.683 -182.776)" fill="#3f3d56"/>
    <ellipse id="Ellipse_506" data-name="Ellipse 506" cx="12.282" cy="12.282" rx="12.282" ry="12.282" transform="translate(190.02 232.939)" fill="#3f3d56"/>
    <path id="Path_509" data-name="Path 509" d="M701.692,349.089A84.189,84.189,0,1,1,785.88,264.9,84.189,84.189,0,0,1,701.692,349.089Zm0-162.571A78.382,78.382,0,1,0,780.074,264.9a78.382,78.382,0,0,0-78.382-78.382Z" transform="translate(-373.113 -103.929)" fill="#3f3d56"/>
    <path id="Path_510" data-name="Path 510" d="M753.314,322.533a15.58,15.58,0,1,1,15.57-15.591,15.58,15.58,0,0,1-15.57,15.591Zm-36.326,0a15.587,15.587,0,0,1-15.57-15.57V270.637a15.57,15.57,0,1,1,31.14,0v36.327a15.588,15.588,0,0,1-15.57,15.57Zm-36.316,0a15.6,15.6,0,0,1-15.58-15.581V292.439a15.581,15.581,0,1,1,31.161,0v14.514a15.6,15.6,0,0,1-15.581,15.581Z" transform="translate(-388.41 -127.829)" fill="#6c63ff"/>
    <path id="Path_511" data-name="Path 511" d="M367.793,608.641v2.081a13.016,13.016,0,0,0,13,13H491.079a13.01,13.01,0,0,0,13-13v-2.081a12.912,12.912,0,0,0-3.018-8.323,13.38,13.38,0,0,0-2.2-2.081h-57.2a2.6,2.6,0,0,1-2.6-2.6H380.8a13.023,13.023,0,0,0-13,13Z" transform="translate(-334.362 -180.712)" fill="#3f3d56"/>
    <rect id="Rectangle_1724" data-name="Rectangle 1724" width="13.525" height="95.716" transform="translate(107.824 538.215) rotate(180)" fill="#3f3d56"/>
    <path id="Path_512" data-name="Path 512" d="M390.167,718.451c0,1.461,20.5.565,45.777.565s45.777.9,45.777-.565-20.5-13.05-45.777-13.05S390.167,716.99,390.167,718.451Z" transform="translate(-334.362 -180.712)" fill="#3f3d56"/>
    <path id="Path_513" data-name="Path 513" d="M389.017,606.446l46.152,7.366,53.622,8.562,18.592,2.965a6.826,6.826,0,0,0,7.8-5.66l.843-5.264.78-4.9.645-4.037a6.748,6.748,0,0,0-1.29-5.16,6.587,6.587,0,0,0-2.528-2.081H441.671a2.6,2.6,0,0,1-2.6-2.6v-2.05a2.6,2.6,0,0,1,2.6-2.6h28.278l-13.036-2.081-40.076-6.4-23.4-3.735a6.84,6.84,0,0,0-7.824,5.67l-2.268,14.191a6.853,6.853,0,0,0,5.67,7.813Z" transform="translate(-334.362 -180.712)" fill="#89c5cc"/>
    <path id="Path_514" data-name="Path 514" d="M488.79,604.47v79.288a6.824,6.824,0,0,0,6.814,6.815h14.389a6.824,6.824,0,0,0,6.815-6.815V604.47a6.726,6.726,0,0,0-1.425-4.151,6.577,6.577,0,0,0-2.643-2.081H492.848a6.612,6.612,0,0,0-2.632,2.081,6.745,6.745,0,0,0-1.426,4.151Z" transform="translate(-334.362 -180.712)" fill="#89c5cc"/>
    <path id="Path_515" data-name="Path 515" d="M445.427,470.269a6.865,6.865,0,0,0,.541,2.05,6.717,6.717,0,0,0,1.946,2.549l.031.021L489,508.192l.6.479,8.5,6.9,2.569,2.081h44.456l-2.559-2.081-35.134-28.507-23.544-19.1L465.569,453.1a6.747,6.747,0,0,0-3.766-1.5.033.033,0,0,0-.021-.01,6.916,6.916,0,0,0-1.228.021,6.557,6.557,0,0,0-1.779.437,5.01,5.01,0,0,0-1.1.562,6.569,6.569,0,0,0-1.7,1.488l-8.927,11-.135.177a6.764,6.764,0,0,0-1.488,4.994Z" transform="translate(-334.362 -180.712)" fill="#b18b66"/>
    <path id="Path_516" data-name="Path 516" d="M447.945,474.889a16.868,16.868,0,0,0,3.319,5.233l27.331,29.36a6.814,6.814,0,0,0,9.644-.427l.76-.864.333-.375,11.809-13.244,5.077-5.7a5.988,5.988,0,0,0,.874-1.165c.125-.208.239-.427.343-.645a6.9,6.9,0,0,0,.572-3.09,6.722,6.722,0,0,0-2.237-4.755L474.079,455A16.973,16.973,0,0,0,461.8,451.6a.033.033,0,0,0-.021-.01,17.841,17.841,0,0,0-2.872.6c-.416.115-.821.26-1.238.416a16.768,16.768,0,0,0-6.918,4.89,16.987,16.987,0,0,0-2.809,17.385Z" transform="translate(-334.362 -180.712)" fill="#ff9b20"/>
    <circle id="Ellipse_507" data-name="Ellipse 507" cx="52.147" cy="52.147" r="52.147" transform="translate(48.459 142.421)" fill="#b18b66"/>
    <path id="Path_517" data-name="Path 517" d="M421.082,599.257l19.341,3.08.437.073,29.4,4.692,18.529,2.965,27.238,4.349.78.125,4.047.645,18.592,2.965a6.826,6.826,0,0,0,7.8-5.66l1.623-10.154.645-4.037c0-.021.01-.042.01-.062H441.671a2.6,2.6,0,0,1-2.6-2.6v-2.049a2.6,2.6,0,0,1,2.6-2.6h34.083V579.615l-2.081-.333-10.279-1.644-37.9-6.045a6.828,6.828,0,0,0-7.814,5.66l-.843,5.254-1.425,8.947A6.833,6.833,0,0,0,421.082,599.257Z" transform="translate(-334.362 -180.712)" fill="#89c5cc"/>
    <path id="Path_518" data-name="Path 518" d="M364,553.189c0,42.51,4.318,67.938,70.9,60.655l.27-.031a197.7,197.7,0,0,0,35.092-6.711,104.219,104.219,0,0,0,17.312-6.783c1.311-.666,2.569-1.363,3.808-2.081h-49.71a2.6,2.6,0,0,1-2.6-2.6v-2.05a2.6,2.6,0,0,1,2.6-2.6h34.083V525.275a7.637,7.637,0,0,1,7.626-7.626h27.727c-.24-.687-.479-1.384-.739-2.081a170.439,170.439,0,0,0-9.228-21,160.151,160.151,0,0,0-17.25-26.613,110.837,110.837,0,0,0-15.439-15.8c-10.435-8.614-21.8-13.941-33.324-13.941C392.617,438.215,364,510.678,364,553.189Z" transform="translate(-334.362 -180.712)" fill="#ff9b20"/>
    <path id="Path_519" data-name="Path 519" d="M433.872,394.606l-.054-1.949c3.625-.1,6.821-.328,9.223-2.083a5.99,5.99,0,0,0,2.32-4.412,3.424,3.424,0,0,0-1.123-2.82c-1.594-1.346-4.16-.911-6.029-.053l-1.612.739,3.092-22.6,1.931.265-2.63,19.221c2.541-.747,4.895-.425,6.507.936a5.331,5.331,0,0,1,1.813,4.377,7.924,7.924,0,0,1-3.118,5.918C441.1,394.4,437.094,394.516,433.872,394.606Z" transform="translate(-334.362 -180.712)" fill="#2f2e41"/>
    <rect id="Rectangle_1725" data-name="Rectangle 1725" width="10.495" height="1.949" transform="translate(116.805 182.643)" fill="#2f2e41"/>
    <rect id="Rectangle_1726" data-name="Rectangle 1726" width="10.495" height="1.949" transform="translate(83.677 182.643)" fill="#2f2e41"/>
    <path id="Path_520" data-name="Path 520" d="M393.35,360.951c4.056-6.1,11.192-8.693,18.229-9.322,7.921-.709,15.574.819,23.307,2.3,8.511,1.633,17.518,3.161,26.094,1.1A25.724,25.724,0,0,0,478.466,340.9a32.905,32.905,0,0,0,1.916-21.941c-2.01-7.781-7-14.628-13.045-19.8-12.342-10.555-29.044-15.3-45.108-14.852a76.262,76.262,0,0,0-44.211,15.545,71.807,71.807,0,0,0-25.474,39.921,74.858,74.858,0,0,0,3.625,47.085c3.515,8.155,8.6,15.506,12.522,23.456,3.653,7.4,6.466,16.007,4.193,24.262-1.994,7.244-7.849,13.68-15.2,15.646a15.961,15.961,0,0,1-17.749-7.246c-3.674-5.794-3.762-13.383,1.755-18.061a13.542,13.542,0,0,1,19.536,1.949,13.939,13.939,0,0,1,2.788,10.22c-.272,1.84,2.544,2.634,2.819.777a16.489,16.489,0,0,0-30.744-10.647c-3.327,6.255-1.532,13.8,2.691,19.147a18.662,18.662,0,0,0,19.028,6.842c7.688-1.775,13.976-7.885,16.934-15.065,3.293-7.993,1.784-16.913-1.426-24.67-3.47-8.385-8.622-15.9-12.7-23.984a68.308,68.308,0,0,1-6.931-23.339,73.847,73.847,0,0,1,10.532-46.776,68.635,68.635,0,0,1,37.8-28.731c15.4-4.834,32.385-4.686,47.463,1.255,14.853,5.852,29.195,18.606,29.023,35.735-.074,7.317-2.79,14.779-8.394,19.659-6.7,5.832-16.024,6.331-24.443,5.421-8.473-.916-16.7-3.391-25.211-4.022-7.4-.549-15.387.022-22,3.7a21.992,21.992,0,0,0-7.64,7.087c-1.044,1.571,1.487,3.037,2.524,1.475Z" transform="translate(-334.362 -180.712)" fill="#2f2e41"/>
    <path id="Path_521" data-name="Path 521" d="M401.648,488.58a5.485,5.485,0,0,0,.28.551,5.915,5.915,0,0,0,.343.541L425.077,522.5l1.769,2.549,18.6,26.759,17.947,25.833,7.262,10.466a6.067,6.067,0,0,0,.656.8,6.8,6.8,0,0,0,4.255,2.081h.187V546.343l-2.081-3-23.336-33.584-25.063-36.07a6.829,6.829,0,0,0-9.489-1.717l-7.689,5.337-4.131,2.871a6.815,6.815,0,0,0-2.32,8.4Z" transform="translate(-334.362 -180.712)" fill="#b18b66"/>
    <path id="Path_522" data-name="Path 522" d="M398.079,487.779l1.03,2.07.011.01.281.551L416.119,523.6a6.839,6.839,0,0,0,9.374,2.289l1.082-.676.27-.166L448.4,511.521a6.812,6.812,0,0,0,2.268-9.405l-23.679-32.106a17.02,17.02,0,0,0-20.787-5.368,16.74,16.74,0,0,0-2.31,1.269,17.024,17.024,0,0,0-5.816,21.869Z" transform="translate(-334.362 -180.712)" fill="#ff9b20"/>
    <path id="Path_523" data-name="Path 523" d="M520.855,598.238v78.331a6.825,6.825,0,0,0,6.815,6.815h14.389a6.825,6.825,0,0,0,6.814-6.815V598.238Z" transform="translate(-334.362 -180.712)" fill="#89c5cc"/>
    <path id="Path_524" data-name="Path 524" d="M436.989,593.587v2.05a4.7,4.7,0,0,0,3.766,4.6c.145.021.291.052.437.062s.312.021.479.021H602.058a9.719,9.719,0,0,0,9.717-9.7V525.275a9.719,9.719,0,0,0-9.717-9.707H483.38a9.718,9.718,0,0,0-9.707,9.707v63.63h-32a4.682,4.682,0,0,0-4.682,4.681Z" transform="translate(-334.362 -180.712)" fill="#fff"/>
    <path id="Path_525" data-name="Path 525" d="M436.989,593.587v2.05a4.7,4.7,0,0,0,3.766,4.6c.145.021.291.052.437.062s.312.021.479.021H602.058a9.719,9.719,0,0,0,9.717-9.7V525.275a9.719,9.719,0,0,0-9.717-9.707H483.38a9.718,9.718,0,0,0-9.707,9.707v63.63h-32a4.682,4.682,0,0,0-4.682,4.681Zm2.081,2.05v-2.05a2.6,2.6,0,0,1,2.6-2.6h34.083V525.275a7.637,7.637,0,0,1,7.626-7.626H602.058a7.639,7.639,0,0,1,7.636,7.626v65.337a7.639,7.639,0,0,1-7.636,7.626H441.671a2.6,2.6,0,0,1-2.6-2.6Z" transform="translate(-334.362 -180.712)" fill="#3f3d56"/>
    <circle id="Ellipse_508" data-name="Ellipse 508" cx="8.001" cy="8.001" r="8.001" transform="translate(200.361 369.232)" fill="#6c63ff"/>
    <rect id="Rectangle_1727" data-name="Rectangle 1727" width="2.081" height="9.364" transform="translate(139.343 409.297)" fill="#3f3d56"/>
  </g>
</svg>
