<?xml version="1.0" ?><svg id="Layer_1" style="enable-background:new 0 0 32 32;" version="1.1" viewBox="0 0 32 32" xml:space="preserve" xmlns="http://www.w3.org/2000/svg" xmlns:xlink="http://www.w3.org/1999/xlink"><style type="text/css">
	.st0{fill:none;stroke:#0C4ADA;stroke-width:2;stroke-linecap:round;stroke-linejoin:round;stroke-miterlimit:10;}
	.st1{fill:none;stroke:#20BFFC;stroke-width:2;stroke-linecap:round;stroke-linejoin:round;stroke-miterlimit:10;}
	
		.st2{fill:none;stroke:#0C4ADA;stroke-width:2;stroke-linecap:round;stroke-linejoin:round;stroke-miterlimit:10;stroke-dasharray:0,4;}
	.st3{fill:#0C4ADA;}
	.st4{fill:#20BFFC;}
</style><g><path class="st0" d="M28,12V6c0-1.1-0.9-2-2-2h-6"/><path class="st0" d="M12,4H6C4.9,4,4,4.9,4,6v6"/><path class="st0" d="M20,28h6c1.1,0,2-0.9,2-2v-6"/><path class="st0" d="M4,20v6c0,1.1,0.9,2,2,2h6"/></g><line class="st1" x1="16" x2="16" y1="9" y2="11.4"/><line class="st1" x1="16" x2="16" y1="20.6" y2="23"/><line class="st1" x1="20.9" x2="19.8" y1="11.1" y2="12.2"/><line class="st1" x1="12.9" x2="11.1" y1="19.1" y2="20.9"/><line class="st1" x1="23" x2="22.1" y1="16" y2="16"/><line class="st1" x1="11.4" x2="9" y1="16" y2="16"/><line class="st1" x1="20.9" x2="20.9" y1="20.9" y2="20.9"/><line class="st1" x1="12.9" x2="11.1" y1="12.9" y2="11.1"/></svg>