<svg xmlns="http://www.w3.org/2000/svg" width="22" height="22" viewBox="0 0 22 22">
  <g id="pass_icon" transform="translate(-528.232 -42)">
    <g id="Ellipse_10" data-name="Ellipse 10" transform="translate(528.232 42)" fill="none" stroke="#6772e5" stroke-width="1">
      <circle cx="11" cy="11" r="11" stroke="none"/>
      <circle cx="11" cy="11" r="10.5" fill="none"/>
    </g>
    <path id="ic_lock_outline_24px" d="M9.343,11.685A1.336,1.336,0,1,0,8.007,10.35,1.34,1.34,0,0,0,9.343,11.685Zm4.007-6.01h-.668V4.339A3.339,3.339,0,1,0,6,4.339V5.675H5.336A1.34,1.34,0,0,0,4,7.01v6.678a1.34,1.34,0,0,0,1.336,1.336H13.35a1.34,1.34,0,0,0,1.336-1.336V7.01A1.34,1.34,0,0,0,13.35,5.675ZM7.272,4.339a2.07,2.07,0,1,1,4.141,0V5.675H7.272Zm6.077,9.35H5.336V7.01H13.35Z" transform="translate(530.233 45)" fill="#6772e5"/>
  </g>
</svg>
