<?xml version="1.0" ?><svg id="Layer_1_1_" style="enable-background:new 0 0 64 64;" version="1.1" viewBox="0 0 64 64" xml:space="preserve" xmlns="http://www.w3.org/2000/svg" xmlns:xlink="http://www.w3.org/1999/xlink"><g><polygon points="27,42 27,52 17,52 17,62 47,62 47,42  " style="fill:#F9D35A;"/></g><rect height="10" style="fill:#E6C253;" width="10" x="17" y="52"/><rect height="10" style="fill:#E6C253;" width="10" x="37" y="52"/><rect height="10" style="fill:#E6C253;" width="10" x="27" y="42"/><g><polygon points="32,2 3,21 3,62 11,62 11,33 53,33 53,62 61,62 61,21  " style="fill:#78DCFF;"/></g><g><path d="M39.521,21.706C39.669,21.293,40.037,21,40.476,21H42v-4h-1.524c-0.439,0-0.807-0.293-0.955-0.706   c-0.086-0.239-0.182-0.472-0.289-0.699c-0.187-0.397-0.134-0.864,0.177-1.175l1.077-1.077l-2.828-2.828l-1.077,1.077   c-0.31,0.31-0.778,0.364-1.175,0.177c-0.227-0.107-0.461-0.204-0.699-0.289C34.293,11.331,34,10.963,34,10.524V9h-4v1.524   c0,0.439-0.293,0.807-0.706,0.955c-0.239,0.086-0.472,0.182-0.699,0.289c-0.397,0.187-0.864,0.134-1.175-0.177l-1.077-1.077   l-2.828,2.828l1.077,1.077c0.31,0.31,0.364,0.778,0.177,1.175c-0.107,0.227-0.204,0.461-0.289,0.699   C24.331,16.707,23.963,17,23.524,17H22v4h1.524c0.439,0,0.807,0.293,0.955,0.706c0.086,0.239,0.182,0.472,0.289,0.699   c0.187,0.397,0.134,0.864-0.177,1.175l-1.077,1.077l2.828,2.828l1.077-1.077c0.31-0.31,0.778-0.364,1.175-0.177   c0.227,0.107,0.461,0.204,0.699,0.289C29.707,26.669,30,27.037,30,27.476V29h4v-1.524c0-0.439,0.293-0.807,0.706-0.955   c0.239-0.086,0.472-0.182,0.699-0.289c0.397-0.187,0.864-0.134,1.175,0.177l1.077,1.077l2.828-2.828l-1.077-1.077   c-0.31-0.31-0.364-0.778-0.177-1.175C39.339,22.177,39.435,21.944,39.521,21.706z M32,23c-2.209,0-4-1.791-4-4c0-2.209,1.791-4,4-4   s4,1.791,4,4C36,21.209,34.209,23,32,23z" style="fill:#777777;"/></g><g><rect height="4" style="fill:#777777;" width="2" x="21" y="52"/></g><g><rect height="4" style="fill:#777777;" width="2" x="31" y="52"/></g><g><rect height="4" style="fill:#777777;" width="2" x="41" y="52"/></g><g><rect height="4" style="fill:#777777;" width="2" x="31" y="42"/></g><g><rect height="4" style="fill:#777777;" width="2" x="41" y="42"/></g><g><rect height="2" style="fill:#0DBFFF;" width="13" x="48" y="25"/></g><g><rect height="2" style="fill:#0DBFFF;" width="2" x="44" y="25"/></g><g><rect height="2" style="fill:#0DBFFF;" width="13" x="3" y="25"/></g><g><rect height="2" style="fill:#0DBFFF;" width="2" x="18" y="25"/></g><g><path d="M53,50.122v11.912h8V37C59.109,41.852,56.386,46.284,53,50.122z" style="fill:#61D6FF;"/></g></svg>