<svg width="65" height="65" xmlns="http://www.w3.org/2000/svg">

 <g>
  <title>background</title>
  <rect fill="none" id="canvas_background" height="402" width="582" y="-1" x="-1"/>
 </g>
 <g>
  <title>Layer 1</title>
  <rect id="svg_4" y="35.6" x="11.1" width="2.8" height="2.8"/>
  <rect id="svg_5" y="44.7" x="11.1" width="2.8" height="2.8"/>
  <rect id="svg_6" y="53.7" x="11.1" width="2.8" height="2.8"/>
  <rect id="svg_7" y="19.5" x="11.1" width="2.8" height="2.8"/>
  <polygon fill="#D5ECF5" id="svg_8" points="21.65703582763672,0.7106632590293884 9.557080268859863,12.910663604736328 21.65703582763672,12.910663604736328 "/>
  <path fill="#D5ECF5" id="svg_9" d="m55,0.360663l-31.3,0l0,13.8c0,0.6 -0.4,1 -1,1l-13.7,0l0,48.2c0,0.6 0.5,1 1,1l45,0c0.5,0 1,-0.4 1,-1l0,-62c0,-0.5 -0.5,-1 -1,-1zm-26.3,10.4l19.1,0c0.6,0 1,0.4 1,1s-0.4,1 -1,1l-19.1,0c-0.6,0 -1,-0.4 -1,-1s0.5,-1 1,-1zm20.2,10c0,0.6 -0.4,1 -1,1l-12.8,0c-0.6,0 -1,-0.4 -1,-1s0.4,-1 1,-1l12.8,0c0.5,0 1,0.5 1,1zm-32.8,-2.4c0,-0.6 0.4,-1 1,-1l4.8,0c0.6,0 1,0.4 1,1l0,4.8c0,0.6 -0.4,1 -1,1l-4.8,0c-0.6,0 -1,-0.4 -1,-1l0,-4.8zm6.8,39c0,0.6 -0.4,1 -1,1l-4.8,0c-0.6,0 -1,-0.4 -1,-1l0,-4.8c0,-0.6 0.4,-1 1,-1l4.8,0c0.6,0 1,0.4 1,1l0,4.8zm0,-9c0,0.6 -0.4,1 -1,1l-4.8,0c-0.6,0 -1,-0.4 -1,-1l0,-4.8c0,-0.6 0.4,-1 1,-1l4.8,0c0.6,0 1,0.4 1,1l0,4.8zm0,-9.1c0,0.6 -0.4,1 -1,1l-4.8,0c-0.6,0 -1,-0.4 -1,-1l0,-4.8c0,-0.6 0.4,-1 1,-1l4.8,0c0.6,0 1,0.4 1,1l0,4.8zm18.6,16.7l-12.8,0c-0.6,0 -1,-0.4 -1,-1s0.4,-1 1,-1l12.8,0c0.6,0 1,0.4 1,1s-0.4,1 -1,1zm0,-9l-12.8,0c-0.6,0 -1,-0.4 -1,-1s0.4,-1 1,-1l12.8,0c0.6,0 1,0.4 1,1s-0.4,1 -1,1zm6.4,-9.1l-19.2,0c-0.6,0 -1,-0.4 -1,-1s0.4,-1 1,-1l19.1,0c0.6,0 1,0.4 1,1s-0.4,1 -0.9,1zm0.2,-9l-31.7,0c-0.6,0 -1,-0.4 -1,-1s0.4,-1 1,-1l31.7,0c0.6,0 1,0.4 1,1s-0.5,1 -1,1z"/>
 </g>
</svg>
