<svg width="32" height="32" xmlns="http://www.w3.org/2000/svg">

 <g>
  <title>background</title>
  <rect fill="none" id="canvas_background" height="402" width="582" y="-1" x="-1"/>
 </g>
 <g>
  <title>Layer 1</title>
  <path id="svg_1" fill-rule="evenodd" fill="#D5ECF5" d="m15.5,1c-8.0081,0 -14.5,6.4919 -14.5,14.5c0,8.0081 6.4919,14.5 14.5,14.5s14.5,-6.4919 14.5,-14.5c0,-8.0081 -6.4919,-14.5 -14.5,-14.5zm1.5,23.7233c0,0.1528 -0.1239,0.2767 -0.2767,0.2767l-2.4467,0c-0.1528,0 -0.2767,-0.1239 -0.2767,-0.2767l0,-2.4467c0,-0.1528 0.1239,-0.2767 0.2767,-0.2767l2.4467,0c0.1528,0 0.2767,0.1239 0.2767,0.2767l0,2.4467zm1.5586,-8.9083l-0.0678,0.0607l-0.0092,0.0094c-0.9335,0.9531 -1.2542,1.662 -1.469,2.4968l-0.0126,0.049l0,1.1691c0,0.2903 -0.228,0.4 -0.4193,0.4l-2.0756,0c-0.0206,0 -0.5051,-0.0527 -0.5051,-0.4l0,-1.3061c0,-1.508 1.0093,-2.5064 1.9853,-3.472l0.1266,-0.1254c0.0629,-0.0624 0.1202,-0.1243 0.177,-0.1858c0.0419,-0.0454 0.0835,-0.0905 0.1277,-0.1354l0.0139,-0.0141c0.9003,-0.9136 1.6695,-1.7763 1.6695,-2.9439c0,-1.5142 -1.0703,-2.5173 -2.7187,-2.5173c-0.8914,0 -1.7932,0.2882 -2.838,0.9l-0.0188,0.0117l-1.036,0.6865c-0.0843,0.0559 -0.1826,0.0854 -0.2841,0.0854c-0.175,0 -0.3368,-0.0864 -0.4327,-0.2312l-0.8344,-1.4949c-0.1174,-0.1773 -0.1266,-0.5583 0.018,-0.6576c0.0355,-0.0254 0.1597,-0.1069 0.4987,-0.3278l0.0189,-0.0124c0.1083,-0.0706 0.195,-0.1271 0.2117,-0.1385c1.5641,-1.0604 3.2942,-1.6212 5.0025,-1.6212c3.0733,0 5.4129,2.0756 5.4129,4.9353c0,2.1479 -1.3451,3.5587 -2.5414,4.7797z"/>
  <path stroke="#D5ECF5" id="svg_2" fill="none" d="m17,24.7233c0,0.1528 -0.1239,0.2767 -0.2767,0.2767l-2.4467,0c-0.1528,0 -0.2767,-0.1239 -0.2767,-0.2767l0,-2.4467c0,-0.1528 0.1239,-0.2767 0.2767,-0.2767l2.4467,0c0.1528,0 0.2767,0.1239 0.2767,0.2767l0,2.4467zm-2.4949,-4.7233c-0.0206,0 -0.5051,-0.0527 -0.5051,-0.4l0,-1.3061c0,-1.508 1.0093,-2.5064 1.9853,-3.472l0.1266,-0.1254c0.0629,-0.0624 0.1202,-0.1243 0.177,-0.1858c0.0419,-0.0454 0.0835,-0.0905 0.1277,-0.1354l0.0139,-0.0141c0.9003,-0.9136 1.6695,-1.7763 1.6695,-2.9439c0,-1.5142 -1.0703,-2.5173 -2.7187,-2.5173c-0.8914,0 -1.7932,0.2882 -2.838,0.9l-0.0188,0.0117l-1.036,0.6865c-0.0843,0.0559 -0.1826,0.0854 -0.2841,0.0854c-0.175,0 -0.3368,-0.0864 -0.4327,-0.2312l-0.8344,-1.4949c-0.1174,-0.1773 -0.1266,-0.5583 0.018,-0.6576c0.0355,-0.0254 0.1597,-0.1069 0.4987,-0.3278l0.0189,-0.0124c0.1083,-0.0706 0.195,-0.1271 0.2117,-0.1385c1.5641,-1.0604 3.2942,-1.6212 5.0025,-1.6212c3.0733,0 5.4129,2.0756 5.4129,4.9353c0,2.1479 -1.3451,3.5587 -2.5414,4.7797l-0.0678,0.0607l-0.0092,0.0094c-0.9335,0.9531 -1.2542,1.662 -1.469,2.4968l-0.0126,0.049l0,1.1691c0,0.2903 -0.228,0.4 -0.4193,0.4l-2.0756,0z"/>
 </g>
</svg>
