<svg width="48" height="48" xmlns="http://www.w3.org/2000/svg">

 <g>
  <title>background</title>
  <rect fill="none" id="canvas_background" height="402" width="582" y="-1" x="-1"/>
 </g>
 <g>
  <title>Layer 1</title>
  <polygon id="svg_2" points="9.875,5.672 9.875,4.797 9.875,3.859 28.766,3.859 29.812,3.859 29.884,3.859 29.884,4.81    29.884,5.828 29.884,11.984 32.75,11.984 37.059,11.984 37.938,11.984 37.938,17.084 37.938,19.084 37.938,26.422 41.842,26.422    41.842,19.084 41.842,17.084 41.842,11.984 41.842,9.422 32.446,0.025 29.884,0.025 5.967,0.025 5.967,17.766 9.875,17.766  " fill="#D5ECF5"/>
  <path id="svg_3" fill="#D5ECF5" d="m45,40.218l0,-4.068l-1.897,0c-0.229,-0.888 -0.596,-1.72 -1.089,-2.464l1.272,-1.272l-2.309,-2.309l-1.272,1.274c-0.739,-0.491 -1.565,-0.857 -2.449,-1.086l0,-1.902l-4.096,0l0,1.902c-0.903,0.234 -1.748,0.609 -2.501,1.116l-1.221,-1.221l-2.309,2.307l1.242,1.241c-0.475,0.728 -0.831,1.537 -1.055,2.4l-1.901,0l0,4.093l1.901,0c0.229,0.883 0.596,1.712 1.085,2.452l-1.272,1.272l2.309,2.307l1.272,-1.272c0.742,0.491 1.571,0.859 2.457,1.088l0,1.898l4.081,0l0,-1.898c0.865,-0.224 1.676,-0.581 2.405,-1.056l1.323,1.322l2.309,-2.307l-1.303,-1.305c0.509,-0.756 0.886,-1.607 1.119,-2.514l1.899,0l0,0.002zm-9.458,0.84c-1.588,0 -2.875,-1.287 -2.875,-2.875s1.287,-2.875 2.875,-2.875s2.875,1.287 2.875,2.875s-1.287,2.875 -2.875,2.875z"/>
  <path id="svg_4" fill="#D5ECF5" d="m23.637,31.782121l2.215,0l0,-4.747l-2.215,0c-0.267,-1.035 -0.694,-2.007 -1.27,-2.875l1.485,-1.484l-2.693,-2.694l-1.484,1.486c-0.864,-0.572 -1.828,-0.999 -2.858,-1.267l0,-2.22l-4.781,0l0,2.22c-1.053,0.272 -2.039,0.711 -2.917,1.302l-1.425,-1.425l-2.694,2.692l1.449,1.449c-0.554,0.849 -0.97,1.793 -1.23,2.8l-2.219,0l0,4.776l2.218,0c0.267,1.031 0.694,1.998 1.267,2.862l-1.485,1.485l2.693,2.691l1.485,-1.484c0.866,0.573 1.834,1.002 2.867,1.269l0,2.216l4.761,0l0,-2.216c1.01,-0.26 1.957,-0.678 2.808,-1.231l1.544,1.543l2.693,-2.691l-1.521,-1.522c0.595,-0.884 1.035,-1.878 1.307,-2.935zm-9.211,1.543c-2.163,0 -3.917,-1.754 -3.917,-3.917s1.754,-3.917 3.917,-3.917s3.917,1.754 3.917,3.917s-1.754,3.917 -3.917,3.917z"/>
 </g>
</svg>
