<svg xmlns="http://www.w3.org/2000/svg" width="48" height="46.534" viewBox="0 0 48 46.534">
  <g id="iconfinder_ads__marketing__announcement__megaphone__loud_6424946" transform="translate(-6 -6.733)">
    <path id="Path_541" data-name="Path 541" d="M54,26.837a9.18,9.18,0,0,0-6.16-8.66v17.31A9.168,9.168,0,0,0,54,26.837Z" fill="#d5ecf5"/>
    <path id="Path_542" data-name="Path 542" d="M20.32,36.077c.333.02.692.05,1.057.084V17.5c-.365.034-.724.064-1.057.085a1.269,1.269,0,0,0-.28.06H15.19a9.184,9.184,0,0,0-2.759,17.946L14.85,50.287a3.557,3.557,0,1,0,7.02-1.15l-2.157-13.12h.337A.763.763,0,0,0,20.32,36.077Z" fill="#d5ecf5"/>
    <path id="Path_543" data-name="Path 543" d="M44.03,46.527a.99.99,0,0,0,.81.4.84.84,0,0,0,.31-.05,1,1,0,0,0,.69-.95V7.737a1.006,1.006,0,0,0-1.81-.6c-4.71,6.36-14.13,9.2-20.651,10.13V36.4C29.9,37.327,39.32,40.167,44.03,46.527ZM25.95,22.5a1,1,0,0,1-.14-1.99,43.3,43.3,0,0,0,16.08-5.52,1,1,0,0,1,1.05,1.71,41.222,41.222,0,0,1-8.311,3.782A49,49,0,0,1,26.1,22.487.756.756,0,0,1,25.95,22.5Z" fill="#d5ecf5"/>
  </g>
</svg>
