<svg width="24.000000000000004" height="24.000000000000004" xmlns="http://www.w3.org/2000/svg">

 <g>
  <title>background</title>
  <rect fill="none" id="canvas_background" height="402" width="582" y="-1" x="-1"/>
 </g>
 <g>
  <title>Layer 1</title>
  <path fill="#D5ECF5" stroke="null" id="settings" d="m21.666756,14.274531l-1.137265,-0.663405c-1.232038,-0.758177 -1.232038,-2.558847 0,-3.317024l1.137265,-0.663405c0.947721,-0.568633 1.232038,-1.705898 0.663405,-2.558847l-0.947721,-1.611126c-0.568633,-0.947721 -1.705898,-1.232038 -2.558847,-0.663405l-1.137265,0.663405c-1.232038,0.758177 -2.843164,-0.189544 -2.843164,-1.611126l0,-1.32681c0,-1.042493 -0.852949,-1.895442 -1.895442,-1.895442l-1.895442,0c-1.042493,0 -1.895442,0.852949 -1.895442,1.895442l0,1.232038c0,1.421582 -1.611126,2.369303 -2.843164,1.611126l-1.137265,-0.568633c-0.947721,-0.568633 -2.084987,-0.189544 -2.558847,0.663405l-0.947721,1.611126c-0.473861,0.947721 -0.189544,2.084987 0.663405,2.653619l1.137265,0.663405c1.232038,0.663405 1.232038,2.558847 0,3.222252l-1.137265,0.663405c-0.947721,0.568633 -1.232038,1.705898 -0.663405,2.558847l0.947721,1.611126c0.568633,0.947721 1.705898,1.232038 2.558847,0.663405l1.137265,-0.568633c1.232038,-0.758177 2.843164,0.189544 2.843164,1.611126l0,1.32681c0,1.042493 0.852949,1.895442 1.895442,1.895442l1.895442,0c1.042493,0 1.895442,-0.852949 1.895442,-1.895442l0,-1.232038c0,-1.421582 1.611126,-2.369303 2.843164,-1.611126l1.137265,0.663405c0.947721,0.568633 2.084987,0.189544 2.558847,-0.663405l0.947721,-1.611126c0.473861,-1.042493 0.189544,-2.179759 -0.663405,-2.748391zm-9.666756,1.516354c-2.084987,0 -3.790885,-1.705898 -3.790885,-3.790885c0,-2.084987 1.705898,-3.790885 3.790885,-3.790885s3.790885,1.705898 3.790885,3.790885c0,2.084987 -1.705898,3.790885 -3.790885,3.790885z"/>
 </g>
</svg>
