<svg xmlns="http://www.w3.org/2000/svg" width="119.581" height="115.75" viewBox="0 0 119.581 115.75">
  <g id="Icon" transform="translate(33.29 -6.75)">
    <g id="Group_2828" data-name="Group 2828">
      <g id="Group_2827" data-name="Group 2827">
        <path id="Path_6207" data-name="Path 6207" d="M35.13,44.25l-.01-8.39a5.01,5.01,0,0,1,1.38-3.48L57.81,10.19a4.612,4.612,0,0,1,3.33-1.44h52.79a6.5,6.5,0,0,1,6.36,6.72l-.24,17.68-.04,49.13v27.56a4.817,4.817,0,0,1-4.72,4.91H39.92a4.817,4.817,0,0,1-4.72-4.91l-.03-32.59" transform="translate(-36)" fill="none" stroke="#071fd2" stroke-miterlimit="10" stroke-width="4"/>
        <path id="Path_6208" data-name="Path 6208" d="M61.706,8.75V31.058a4.482,4.482,0,0,1-4.237,4.692H35.706" transform="translate(-36)" fill="none" stroke="#071fd2" stroke-miterlimit="10" stroke-width="4"/>
      </g>
      <path id="Path_6209" data-name="Path 6209" d="M96.1,106.89H86.21v14.36h-17V106.89h-9.9l18.4-21.92Z" transform="translate(-35.999)" fill="#fff" stroke="#071fd2" stroke-width="2.5"/>
    </g>
    <g id="Group_2838" data-name="Group 2838" transform="translate(-842.29 -475.25)">
      <rect id="Rectangle_1771" data-name="Rectangle 1771" width="66" height="34" rx="4" transform="translate(809 519)" fill="#071fd2"/>
      <text id="xlsx" transform="translate(842 545)" fill="#fff" font-size="23" font-family="Roboto-Medium, Roboto" font-weight="500"><tspan x="-27.717" y="0">XLSX</tspan></text>
    </g>
  </g>
</svg>
