<svg xmlns="http://www.w3.org/2000/svg" width="750" height="247" viewBox="0 0 1239.3 408.686">
  <g id="Group_14" data-name="Group 14" transform="translate(110.863 -373.374)">
    <rect id="Rectangle_1" data-name="Rectangle 1" width="1239.3" height="2.848" transform="translate(-110.863 779.212)" fill="#3f3d56"/>
    <g id="Group_2759" data-name="Group 2759" transform="translate(-13.309)">
      <g id="Group_2757" data-name="Group 2757" transform="translate(9.446 373.375)">
        <path id="Path_6194" data-name="Path 6194" d="M332.781,410.252c0-37.757,30.628-127.351,68.41-127.351S469.6,372.5,469.6,410.252a68.41,68.41,0,1,1-136.821,0Z" transform="translate(-243.029 -167.889)" fill="rgba(66,105,47,0.57)"/>
        <path id="Path_6195" data-name="Path 6195" d="M420.072,592.4a.562.562,0,0,1-.563-.562v-235.7a.563.563,0,1,1,1.125,0v235.7a.562.562,0,0,1-.562.562Z" transform="translate(-261.911 -183.71)" fill="#3f3d56"/>
        <path id="Path_6196" data-name="Path 6196" d="M412.537,406.615a.561.561,0,0,1-.4-.165l-27.077-27.058a.562.562,0,0,1,.8-.795l27.077,27.058a.562.562,0,0,1-.4.96Z" transform="translate(-254.376 -188.687)" fill="#3f3d56"/>
        <path id="Path_6197" data-name="Path 6197" d="M420.072,461.414a.562.562,0,0,1-.4-.96L465.02,415.14a.562.562,0,1,1,.8.795L420.47,461.249a.561.561,0,0,1-.4.165Z" transform="translate(-261.911 -196.642)" fill="#3f3d56"/>
        <path id="Path_6198" data-name="Path 6198" d="M218.052,313.108c0-52.543,42.595-177.226,95.138-177.226s95.138,124.683,95.138,177.226a95.138,95.138,0,0,1-190.276,0Z" transform="translate(-218.053 -135.883)" fill="#42692f"/>
        <g id="Group_2758" data-name="Group 2758" transform="translate(56.7 79.116)">
          <path id="Path_6199" data-name="Path 6199" d="M339.448,566.585a.782.782,0,0,1-.782-.782v-328a.782.782,0,0,1,1.565,0v328A.782.782,0,0,1,339.448,566.585Z" transform="translate(-301.01 -237.016)" fill="#3f3d56"/>
          <path id="Path_6200" data-name="Path 6200" d="M328.969,308.047a.78.78,0,0,1-.553-.229l-37.656-37.655a.782.782,0,0,1,1.106-1.106l37.655,37.655a.782.782,0,0,1-.553,1.335Z" transform="translate(-290.531 -243.941)" fill="#3f3d56"/>
          <path id="Path_6201" data-name="Path 6201" d="M339.448,384.307a.782.782,0,0,1-.553-1.335l63.061-63.061a.782.782,0,1,1,1.106,1.106L340,384.078a.78.78,0,0,1-.553.229Z" transform="translate(-301.011 -255.012)" fill="#3f3d56"/>
        </g>
      </g>
      <g id="Group_9" data-name="Group 9" transform="translate(-237 346.008)">
        <path id="Path_141" data-name="Path 141" d="M827.279,436.053H539.012a5.345,5.345,0,0,1-5.338-5.338V184.207a5.345,5.345,0,0,1,5.338-5.338H827.279a5.345,5.345,0,0,1,5.338,5.338V430.714a5.344,5.344,0,0,1-5.338,5.338ZM539.012,181a3.207,3.207,0,0,0-3.2,3.2V430.714a3.207,3.207,0,0,0,3.2,3.2H827.279a3.206,3.206,0,0,0,3.2-3.2V184.207a3.207,3.207,0,0,0-3.2-3.2Z" transform="translate(-44.905 -3)" fill="#e6e6e6"/>
        <circle id="Ellipse_19" data-name="Ellipse 19" cx="21.745" cy="21.745" r="21.745" transform="translate(517.152 370.472)" fill="#e6e6e6"/>
        <path id="Path_142" data-name="Path 142" d="M634.024,377.72a3.624,3.624,0,1,0,0,7.248H804.88a3.624,3.624,0,1,0,0-7.248Z" transform="translate(-44.905)" fill="#e6e6e6"/>
        <path id="Path_143" data-name="Path 143" d="M634.024,399.466a3.624,3.624,0,1,0,0,7.248h73.52a3.624,3.624,0,1,0,0-7.248Z" transform="translate(-44.905)" fill="#e6e6e6"/>
        <path id="Path_154" data-name="Path 154" d="M895.768,350.074H607.5a5.344,5.344,0,0,1-5.338-5.338V218.229a5.344,5.344,0,0,1,5.338-5.338H895.768a5.344,5.344,0,0,1,5.338,5.338V344.736a5.344,5.344,0,0,1-5.338,5.338Z" transform="translate(-44.905)" fill="#6c63ff"/>
        <path id="Path_155" data-name="Path 155" d="M666.206,256.985a3.624,3.624,0,1,0,0,7.248H837.063a3.624,3.624,0,1,0,0-7.248Z" transform="translate(-44.905)" fill="#fff"/>
        <path id="Path_156" data-name="Path 156" d="M666.206,277.985a3.624,3.624,0,1,0,0,7.248H837.063a3.624,3.624,0,1,0,0-7.248Z" transform="translate(-44.905)" fill="#fff"/>
        <path id="Path_157" data-name="Path 157" d="M666.206,298.731a3.624,3.624,0,1,0,0,7.248h73.52a3.624,3.624,0,1,0,0-7.248Z" transform="translate(-44.905)" fill="#fff"/>
      </g>
      <g id="Group_10" data-name="Group 10" transform="translate(100 164.584)">
        <path id="Path_138" data-name="Path 138" d="M883.279,615.053H595.012a5.345,5.345,0,0,1-5.338-5.338V538.207a5.345,5.345,0,0,1,5.338-5.338H883.279a5.345,5.345,0,0,1,5.338,5.338v71.507a5.345,5.345,0,0,1-5.338,5.339ZM595.012,535a3.207,3.207,0,0,0-3.2,3.2v71.507a3.207,3.207,0,0,0,3.2,3.2H883.279a3.206,3.206,0,0,0,3.2-3.2v-71.5a3.206,3.206,0,0,0-3.2-3.2Z" transform="translate(-44.906)" fill="#e6e6e6"/>
        <circle id="Ellipse_18" data-name="Ellipse 18" cx="21.745" cy="21.745" r="21.745" transform="translate(573.152 549.472)" fill="#e6e6e6"/>
        <path id="Path_139" data-name="Path 139" d="M690.024,556.72a3.624,3.624,0,0,0,0,7.248H860.88a3.624,3.624,0,1,0,0-7.248Z" transform="translate(-44.906)" fill="#e6e6e6"/>
        <path id="Path_140" data-name="Path 140" d="M690.024,578.466a3.624,3.624,0,1,0,0,7.248h73.52a3.624,3.624,0,0,0,0-7.248Z" transform="translate(-44.906)" fill="#e6e6e6"/>
      </g>
      <g id="Group_11" data-name="Group 11" transform="matrix(0.914, 0.407, -0.407, 0.914, 266.183, -179.59)">
        <path id="Path_135" data-name="Path 135" d="M811.279,721.053H523.012a5.345,5.345,0,0,1-5.338-5.338V644.207a5.344,5.344,0,0,1,5.338-5.338H811.279a5.345,5.345,0,0,1,5.338,5.338v71.507a5.345,5.345,0,0,1-5.338,5.338ZM523.012,641a3.207,3.207,0,0,0-3.2,3.2v71.507a3.207,3.207,0,0,0,3.2,3.2H811.279a3.206,3.206,0,0,0,3.2-3.2v-71.5a3.207,3.207,0,0,0-3.2-3.2Z" transform="translate(112.094 -174.499)" fill="#e6e6e6"/>
        <circle id="Ellipse_17" data-name="Ellipse 17" cx="21.745" cy="21.745" r="21.745" transform="translate(658.152 480.973)" fill="#e6e6e6"/>
        <path id="Path_136" data-name="Path 136" d="M618.024,662.72a3.624,3.624,0,0,0,0,7.248H788.88a3.624,3.624,0,1,0,0-7.248Z" transform="translate(112.094 -174.499)" fill="#e6e6e6"/>
        <path id="Path_137" data-name="Path 137" d="M618.024,684.466a3.624,3.624,0,1,0,0,7.248h73.52a3.624,3.624,0,0,0,0-7.248Z" transform="translate(112.094 -174.499)" fill="#e6e6e6"/>
      </g>
      <g id="Group_12" data-name="Group 12" transform="translate(-217.382 -42.578) rotate(-4.992)">
        <path id="Path_138-2" data-name="Path 138" d="M883.279,615.053H595.012a5.345,5.345,0,0,1-5.338-5.338V538.207a5.345,5.345,0,0,1,5.338-5.338H883.279a5.345,5.345,0,0,1,5.338,5.338v71.507a5.345,5.345,0,0,1-5.338,5.339ZM595.012,535a3.207,3.207,0,0,0-3.2,3.2v71.507a3.207,3.207,0,0,0,3.2,3.2H883.279a3.206,3.206,0,0,0,3.2-3.2v-71.5a3.206,3.206,0,0,0-3.2-3.2Z" transform="translate(-44.906)" fill="#e6e6e6"/>
        <circle id="Ellipse_18-2" data-name="Ellipse 18" cx="21.745" cy="21.745" r="21.745" transform="translate(573.152 549.472)" fill="#e6e6e6"/>
        <path id="Path_139-2" data-name="Path 139" d="M690.024,556.72a3.624,3.624,0,0,0,0,7.248H860.88a3.624,3.624,0,1,0,0-7.248Z" transform="translate(-44.906)" fill="#e6e6e6"/>
        <path id="Path_140-2" data-name="Path 140" d="M690.024,578.466a3.624,3.624,0,1,0,0,7.248h73.52a3.624,3.624,0,0,0,0-7.248Z" transform="translate(-44.906)" fill="#e6e6e6"/>
      </g>
      <path id="Path_133" data-name="Path 133" d="M318.432,675.924a158.394,158.394,0,0,1-7.4,43.785c-.1.329-.211.653-.319.982H283.1c.029-.295.059-.624.088-.982,1.841-21.166-8.677-148.453-21.369-170.483C262.931,551.013,320.573,608.67,318.432,675.924Z" transform="translate(697.642 58.945)" fill="#90a687"/>
      <path id="Path_134" data-name="Path 134" d="M284.933,719.709c-.231.329-.471.658-.717.982H263.5c.157-.28.339-.609.55-.982,3.422-6.176,13.551-24.642,22.953-43.785C297.1,655.352,306.377,634,305.6,626.272,305.838,628.014,312.83,681.148,284.933,719.709Z" transform="translate(729.069 58.945)" fill="#42692f"/>
    </g>
  </g>
</svg>
