<svg xmlns="http://www.w3.org/2000/svg" width="22" height="22" viewBox="0 0 22 22">
  <g id="pass_hide" transform="translate(-480.232 -34)">
    <g id="Ellipse_11" data-name="Ellipse 11" transform="translate(480.232 34)" fill="none" stroke="#6772e5" stroke-width="1">
      <circle cx="11" cy="11" r="11" stroke="none"/>
      <circle cx="11" cy="11" r="10.5" fill="none"/>
    </g>
    <path id="ic_remove_red_eye_24px" d="M8.976,4.5A8.633,8.633,0,0,0,1,9.256a8.633,8.633,0,0,0,7.976,4.756,8.633,8.633,0,0,0,7.976-4.756A8.633,8.633,0,0,0,8.976,4.5Zm0,7.927A3.422,3.422,0,0,1,5.351,9.256,3.422,3.422,0,0,1,8.976,6.085,3.422,3.422,0,0,1,12.6,9.256,3.422,3.422,0,0,1,8.976,12.427Zm0-5.073A2.05,2.05,0,0,0,6.8,9.256a2.05,2.05,0,0,0,2.175,1.9,2.05,2.05,0,0,0,2.175-1.9A2.05,2.05,0,0,0,8.976,7.354Z" transform="translate(482.233 36.644)" fill="#6772e5"/>
    <line id="Line_1" data-name="Line 1" y1="13" x2="13" transform="translate(484.732 38.5)" fill="none" stroke="#6772e5" stroke-width="2"/>
  </g>
</svg>
