<svg width="400" height="400" xmlns="http://www.w3.org/2000/svg">

 <g>
  <title>background</title>
  <rect fill="none" id="canvas_background" height="402" width="582" y="-1" x="-1"/>
 </g>
 <g>
  <title>Layer 1</title>
  <path stroke="null" fill="#D5ECF5" id="svg_2" d="m290.357236,149.727645c-12.772416,0 -24.42235,4.796959 -33.260489,12.680429l-99.268084,-64.886358c1.17096,-4.241312 1.811135,-8.707618 1.811135,-13.324333c0,-27.612036 -22.386222,-49.998258 -49.998258,-49.998258c-27.613279,0 -49.998258,22.386222 -49.998258,49.998258s22.384979,49.998258 49.998258,49.998258c10.380773,0 20.021927,-3.163581 28.014786,-8.583312l103.160097,67.433382c-0.290875,2.186538 -0.457445,4.41534 -0.457445,6.680191c0,2.210156 0.159111,4.383021 0.437556,6.516107l-102.509978,67.007014c-7.627401,-4.714917 -16.614706,-7.442185 -26.242187,-7.442185c-27.610793,0 -49.998258,22.38125 -49.998258,49.995772s22.387465,49.998258 49.998258,49.998258c27.612036,0 49.997015,-22.383736 49.997015,-49.998258c0,-5.316557 -0.835335,-10.44044 -2.376726,-15.249829l97.313998,-63.612224c8.850569,7.94438 20.548983,12.78236 33.379823,12.78236c27.613279,0 49.998258,-22.387465 49.998258,-49.998258c-0.002486,-27.612036 -22.386222,-49.997015 -49.999501,-49.997015z"/>
 </g>
</svg>
