<svg width="64" height="64" xmlns="http://www.w3.org/2000/svg">

 <g>
  <title>background</title>
  <rect fill="none" id="canvas_background" height="402" width="582" y="-1" x="-1"/>
 </g>
 <g>
  <title>Layer 1</title>
  <path fill="#D5ECF5" id="svg_1" d="m12.1719,5.233113l-6.1243,8.5718a0.6819,0.6819 0 0 0 0.5542,1.0781l17.312,0.0166l7.2554,-10.2317l-17.8992,0a1.35,1.35 0 0 0 -1.0981,0.5652z"/>
  <path fill="#D5ECF5" id="svg_2" d="m57.7119,13.861313l-6.1643,-8.6282a1.3506,1.3506 0 0 0 -1.0986,-0.5652l-17.889,0l7.2334,10.2549l17.3628,0.0166a0.6818,0.6818 0 0 0 0.5557,-1.0781z"/>
  <path fill="#D5ECF5" id="svg_3" d="m37.99,17.050313l-4.78,-6.7764l0,20.8687l17.239,0a1.75,1.75 0 0 0 1.75,-1.75l0,-11.7577l-13.1075,-0.0126a1.3519,1.3519 0 0 1 -1.1015,-0.572z"/>
  <path fill="#D5ECF5" id="svg_4" d="m24.6111,17.600613l-0.002,0l-13.0891,0.0107l0,11.7813a1.75,1.75 0 0 0 1.75,1.75l17.24,0l0,-20.8777l-4.7979,6.7661a1.3519,1.3519 0 0 1 -1.101,0.5696z"/>
  <path fill="#D5ECF5" id="svg_5" d="m15.1052,35.640662l-6.5581,0a1.0432,1.0432 0 0 0 -1.0432,1.0434l0,22.3817a1.0434,1.0434 0 0 0 1.0432,1.0435l6.5581,0a2.2744,2.2744 0 0 0 2.2748,-2.2744l0,-19.92a2.2744,2.2744 0 0 0 -2.2748,-2.2742z"/>
  <path fill="#D5ECF5" id="svg_6" d="m56.3279,38.268962a3.8042,3.8042 0 0 0 -3.1846,-1.7159l-2.57,0a5.5493,5.5493 0 0 0 -5.1455,3.4429a5.75,5.75 0 0 1 -1.0239,1.6192a8.3784,8.3784 0 0 1 -6.6839,3.7988l-7.6123,0.0005a1.35,1.35 0 0 1 0,-2.7l7.5762,0a5.0783,5.0783 0 0 0 2.7244,-0.8766l0,-0.0458a5.219,5.219 0 0 0 -5.2183,-5.239l-5.586,0a7.7366,7.7366 0 0 0 -5.497,2.2706l-0.1426,0.142a7.2457,7.2457 0 0 1 -3.8858,2.0127l0,14.9112l20.3714,0a15.4305,15.4305 0 0 0 14.19,-9.3467l2.0068,-4.6709a3.802,3.802 0 0 0 -0.3189,-3.603z"/>
 </g>
</svg>
