<svg xmlns="http://www.w3.org/2000/svg" width="36.8" height="47" viewBox="0 0 36.8 47">
  <g id="iconfinder_139_906637" transform="translate(-5.6 -0.5)">
    <g id="Group_2804" data-name="Group 2804">
      <g id="Group_2802" data-name="Group 2802">
        <path id="Path_546" data-name="Path 546" d="M40.4,45.5H7.6V2.5H28.3L40.4,13Z" fill="#d5ecf5"/>
        <path id="Path_547" data-name="Path 547" d="M40.4,47.5H7.6a2.006,2.006,0,0,1-2-2V2.5a2.006,2.006,0,0,1,2-2H28.3a2.106,2.106,0,0,1,1.3.5L41.7,11.6a2.127,2.127,0,0,1,.7,1.5V45.6A1.988,1.988,0,0,1,40.4,47.5ZM9.6,43.6H38.5V13.9L27.6,4.4H9.6Z" fill="#d5ecf5"/>
      </g>
      <g id="Group_2803" data-name="Group 2803">
        <path id="Path_548" data-name="Path 548" d="M40.4,13l-12.1.2V2.5Z" fill="#0820a6"/>
        <path id="Path_549" data-name="Path 549" d="M28.3,15.2a2.051,2.051,0,0,1-2-2V2.5A1.831,1.831,0,0,1,27.5.7a2.012,2.012,0,0,1,2.1.3L41.7,11.6a1.973,1.973,0,0,1,.5,2.2,1.922,1.922,0,0,1-1.8,1.3l-12.1.1Zm2-8.4v4.4l5-.1Z" fill="#d5ecf5"/>
      </g>
    </g>
    <g id="Group_2805" data-name="Group 2805">
      <path id="Path_550" data-name="Path 550" d="M26.3,22.374h-11a1.835,1.835,0,0,1-2-1.587,1.835,1.835,0,0,1,2-1.587h11a1.835,1.835,0,0,1,2,1.587A1.835,1.835,0,0,1,26.3,22.374Z" transform="translate(2)" fill="#0820a6"/>
    </g>
    <g id="Group_2806" data-name="Group 2806" transform="translate(-0.05 1)">
      <path id="Path_551" data-name="Path 551" d="M21.6,39.8a1.974,1.974,0,0,1-1.4-.6L16,35a1.98,1.98,0,1,1,2.8-2.8l2.9,2.9,7.6-7.6a1.98,1.98,0,0,1,2.8,2.8l-9,9A2.26,2.26,0,0,1,21.6,39.8Z" fill="#0820a6"/>
    </g>
  </g>
</svg>
